<?xml version="1.0" encoding="utf-8"?>
<!-- Generator: Adobe Illustrator 16.0.4, SVG Export Plug-In . SVG Version: 6.00 Build 0)  -->
<!DOCTYPE svg PUBLIC "-//W3C//DTD SVG 1.1//EN" "http://www.w3.org/Graphics/SVG/1.1/DTD/svg11.dtd">
<svg version="1.1" id="Layer_1" xmlns="http://www.w3.org/2000/svg" xmlns:xlink="http://www.w3.org/1999/xlink" x="0px" y="0px"
	 width="210px" height="120px" viewBox="0 0 210 120" enable-background="new 0 0 210 120" xml:space="preserve">
<path fill="#FFFFFF" d="M167.572,9.412c-13.447,0-24.19,5.889-30.148,16.135l-0.007,0.079
	c-4.931-10.065-14.519-16.214-28.587-16.214c-13.444,0-24.194,5.889-30.129,16.135l-0.02,0.079
	C73.75,15.561,64.15,9.412,50.087,9.412c-12.298,0-22.316,4.988-28.495,13.697l-1.64-11.227H0v98.706h23.798V56.675
	c0-12.339,5.942-26.576,19.577-26.576c12.087,0,15.354,7.029,15.354,19.18v61.308h23.792v-0.01l0.016,0.01V56.675
	c0-12.339,5.938-26.576,19.561-26.576c12.109,0,15.367,7.029,15.367,19.18v61.308h23.788v-0.01l0.011,0.01V56.675
	c0-12.339,5.947-26.576,19.562-26.576c12.107,0,15.374,7.029,15.374,19.18v61.308H200V43.956C200,23.46,188.872,9.412,167.572,9.412
	z"/>
</svg>
